<svg id="list-note-black-square-interface-symbol" xmlns="http://www.w3.org/2000/svg" width="28.604" height="28.604" viewBox="0 0 28.604 28.604">
  <g id="Group_1382" data-name="Group 1382">
    <rect id="Rectangle_501" data-name="Rectangle 501" width="1.244" height="1.244" transform="translate(4.975 11.193)" fill="#54c8d6"/>
    <path id="Path_1043" data-name="Path 1043" d="M325.125,307.244v7.462L332.587,306h-6.218A1.246,1.246,0,0,0,325.125,307.244Z" transform="translate(-303.983 -286.101)" fill="#54c8d6"/>
    <rect id="Rectangle_502" data-name="Rectangle 502" width="1.244" height="1.244" transform="translate(4.975 16.168)" fill="#54c8d6"/>
    <path id="Path_1044" data-name="Path 1044" d="M26.117,0H2.487A2.5,2.5,0,0,0,0,2.487V6.218H28.6V2.487A2.5,2.5,0,0,0,26.117,0Z" fill="#54c8d6"/>
    <path id="Path_1045" data-name="Path 1045" d="M0,133.4a2.5,2.5,0,0,0,2.487,2.487H19.9V128.43a2.5,2.5,0,0,1,2.487-2.487H28.6V114.75H0Zm9.949-14.924H24.873v1.244H9.949Zm0,4.975h8.706V124.7H9.949Zm0,4.975h7.462v1.244H9.949ZM3.731,117.237H7.462v3.731H3.731Zm0,4.975H7.462v3.731H3.731Zm0,4.975H7.462v3.731H3.731Z" transform="translate(0 -107.288)" fill="#54c8d6"/>
    <rect id="Rectangle_503" data-name="Rectangle 503" width="1.244" height="1.244" transform="translate(4.975 21.142)" fill="#54c8d6"/>
  </g>
</svg>
