<svg id="Group_2487" data-name="Group 2487" xmlns="http://www.w3.org/2000/svg" width="33.064" height="33.644" viewBox="0 0 33.064 33.644">
  <g id="Group_2486" data-name="Group 2486">
    <path id="Path_1037" data-name="Path 1037" d="M46.11,38.3l-.838-.161a1.144,1.144,0,0,1-.706-1.8l.526-.717a.58.58,0,0,0-.058-.754L43.9,33.736a.582.582,0,0,0-.736-.07l-.706.478a1.141,1.141,0,0,1-1.772-.773l-.135-.879A.579.579,0,0,0,39.977,32H38.37a.58.58,0,0,0-.57.471l-.208,1.082a1.149,1.149,0,0,1-1.126.929,1.132,1.132,0,0,1-.637-.2l-.912-.617a.582.582,0,0,0-.736.07l-1.136,1.136a.58.58,0,0,0-.058.754l.526.717a1.144,1.144,0,0,1-.706,1.8l-.838.161a.581.581,0,0,0-.471.57v1.607a.58.58,0,0,0,.492.573l.879.135a1.144,1.144,0,0,1,.773,1.772l-.478.706a.58.58,0,0,0,.07.736l1.136,1.136a.582.582,0,0,0,.754.058l.717-.526a1.125,1.125,0,0,1,.671-.223,1.151,1.151,0,0,1,1.128.929l.161.838a.582.582,0,0,0,.571.47h1.607a.58.58,0,0,0,.573-.492l.1-.618A1.143,1.143,0,0,1,41.782,45a1.128,1.128,0,0,1,.671.224l.5.37a.579.579,0,0,0,.754-.058L44.846,44.4a.58.58,0,0,0,.07-.736l-.478-.706a1.144,1.144,0,0,1,.773-1.772l.879-.135a.581.581,0,0,0,.492-.573V38.871A.582.582,0,0,0,46.11,38.3Zm-.689,1.679-.387.06a2.3,2.3,0,0,0-1.557,3.569l.209.309-.446.445-.1-.075A2.3,2.3,0,0,0,39.5,45.8l-.019.126h-.63l-.07-.367a2.3,2.3,0,0,0-3.625-1.423l-.316.231-.445-.445.209-.309a2.3,2.3,0,0,0-1.557-3.569l-.387-.059v-.63l.367-.07a2.3,2.3,0,0,0,1.423-3.625l-.231-.316.445-.445.516.349a2.3,2.3,0,0,0,3.554-1.472l.117-.611h.63l.06.387A2.3,2.3,0,0,0,43.109,35.1l.309-.209.445.445-.231.316a2.3,2.3,0,0,0,1.423,3.625l.367.07v.63Z" transform="translate(-13.518 -13.438)" fill="#54c8d6"/>
    <path id="Path_1038" data-name="Path 1038" d="M42.4,40a2.9,2.9,0,1,0,2.9,2.9A2.9,2.9,0,0,0,42.4,40Zm0,4.641a1.74,1.74,0,1,1,1.74-1.74A1.742,1.742,0,0,1,42.4,44.641Z" transform="translate(-16.877 -16.797)" fill="#54c8d6"/>
    <path id="Path_1039" data-name="Path 1039" d="M18.657,29.325l-1.423-.219a.581.581,0,0,1-.492-.573V24a.58.58,0,0,1,.471-.57l1.323-.254-.852-1.16a.58.58,0,0,1,.058-.754l3.209-3.207a.582.582,0,0,1,.736-.07l.227.154c.026-.07.056-.138.081-.209A2.105,2.105,0,0,0,23.2,16.019V13.962a2.111,2.111,0,0,0-.515-1.374V9.881a4.678,4.678,0,0,0-1.092-3.4c-1.07-1.221-2.8-1.839-5.144-1.839s-4.074.618-5.143,1.838a4.679,4.679,0,0,0-1.092,3.4v2.707A2.114,2.114,0,0,0,9.7,13.961v2.056a2.11,2.11,0,0,0,.777,1.636,10.9,10.9,0,0,0,1.794,3.706v1.679a1.294,1.294,0,0,1-.674,1.136l-4.587,2.5a4.192,4.192,0,0,0-.436.276,14.8,14.8,0,1,1,24.514-8.9l.005,0,1,1A15.951,15.951,0,1,0,5.678,27.7l-.015.013.517.436c.034.028.07.052.1.079.275.228.56.444.85.654.094.068.188.136.284.2q.465.32.952.608l.213.123c.356.2.719.393,1.091.568l.082.037a15.808,15.808,0,0,0,3.858,1.221l.107.019c.42.073.845.131,1.274.169l.157.012c.429.035.861.058,1.3.058s.864-.023,1.289-.057l.162-.012c.217-.02.429-.056.643-.085l-.574-.575a.58.58,0,0,1-.07-.736Z" transform="translate(-0.5)" fill="#7327c2"/>
  </g>
</svg>
