<svg xmlns="http://www.w3.org/2000/svg" xmlns:xlink="http://www.w3.org/1999/xlink" width="32.59" height="31.274" viewBox="0 0 32.59 31.274">
  <defs>
    <clipPath id="clip-path">
      <rect id="Rectangle_869" data-name="Rectangle 869" width="32.59" height="31.274" fill="#54c8d6"/>
    </clipPath>
  </defs>
  <g id="Group_2228" data-name="Group 2228" transform="translate(-155.12 -2026)">
    <g id="Group_2170" data-name="Group 2170" transform="translate(155.12 2026)">
      <g id="Group_2169" data-name="Group 2169" transform="translate(0)">
        <g id="Group_2168" data-name="Group 2168" clip-path="url(#clip-path)">
          <path id="Path_2613" data-name="Path 2613" d="M129.38,5.952l12.985-3.544-.688-1.39a1.83,1.83,0,0,0-2.451-.827L127.6,5.952Zm0,0" transform="translate(-121.773 0)" fill="#54c8d6"/>
          <path id="Path_2614" data-name="Path 2614" d="M270.452,54.9a1.828,1.828,0,0,0-.483.066l-3.051.834L257.6,58.337h15.183l-.571-2.092a1.826,1.826,0,0,0-1.763-1.35Zm0,0" transform="translate(-245.829 -52.385)" fill="#54c8d6"/>
          <path id="Path_2615" data-name="Path 2615" d="M28.867,158.176H1.832a1.831,1.831,0,0,0-1.767,1.35A1.889,1.889,0,0,0,0,160v20.377a1.83,1.83,0,0,0,1.829,1.829H28.863a1.83,1.83,0,0,0,1.829-1.829v-5.1H19.84a3.111,3.111,0,0,1-3.109-3.109V168.1A3.1,3.1,0,0,1,19.836,165H30.692V160a1.824,1.824,0,0,0-1.825-1.829Zm0,0" transform="translate(-0.005 -150.944)" fill="#7327c2"/>
        </g>
      </g>
      <path id="Path_2616" data-name="Path 2616" d="M407.887,335.616a1.827,1.827,0,0,0-.64-.38,1.866,1.866,0,0,0-.593-.1h-10.9a1.829,1.829,0,0,0-1.829,1.829v4.071a1.83,1.83,0,0,0,1.829,1.829h10.9a1.865,1.865,0,0,0,.593-.1,1.775,1.775,0,0,0,.64-.38,1.823,1.823,0,0,0,.6-1.35v-4.071a1.822,1.822,0,0,0-.6-1.35Zm-8.318,3.749a.915.915,0,0,1-.914.914h-.607a.915.915,0,0,1-.914-.914v-.607a.9.9,0,0,1,.351-.717.924.924,0,0,1,.563-.2h.607a.915.915,0,0,1,.914.914Zm0,0" transform="translate(-375.917 -319.814)" fill="#54c8d6"/>
    </g>
  </g>
</svg>
