<svg xmlns="http://www.w3.org/2000/svg" width="84.434" height="107.404" viewBox="0 0 84.434 107.404"><defs><style>.a{fill:#54c8d6;}.b{fill:#7327c2;opacity:0.43;}</style></defs><g transform="translate(-54.75)"><path class="a" d="M124.366,81.715l8.708,8.708-4.769,4.769,4.45,4.45,4.769-4.769,4.769,4.769,4.45-4.45-4.769-4.769,4.769-4.769-4.45-4.45-4.769,4.769-5.041-5.041a9.514,9.514,0,0,0-3.436-18.387H118.073V91.221h6.293Zm0-12.876h4.681a3.222,3.222,0,0,1,0,6.445h-4.681Z" transform="translate(-50.039 -49.425)"/><path class="b" d="M54.75,0V107.4h84.434V0Zm78.141,101.111H61.043V6.293h71.848Z"/><path class="a" d="M124.083,277h6.293v6.293h-6.293Z" transform="translate(-54.789 -218.893)"/><path class="b" d="M187.75,277H229.7v6.293H187.75Z" transform="translate(-105.1 -218.893)"/><path class="b" d="M286.5,213.778h21.24v6.293H286.5Z" transform="translate(-183.135 -168.933)"/><path class="a" d="M124.083,340.222h6.293v6.293h-6.293Z" transform="translate(-54.789 -268.852)"/><path class="b" d="M187.75,340.222H229.7v6.293H187.75Z" transform="translate(-105.1 -268.852)"/><path class="a" d="M0,0H6.293V6.293H0Z" transform="translate(69.252 84.788) rotate(-0.286)"/><path class="b" d="M0,0H41.955V6.293H0Z" transform="translate(82.608 84.721) rotate(-0.286)"/></g></svg>